<?xml version="1.0" encoding="utf-8"?>
<!-- Generator: Adobe Illustrator 27.5.0, SVG Export Plug-In . SVG Version: 6.00 Build 0)  -->
<svg version="1.1" xmlns="http://www.w3.org/2000/svg" xmlns:xlink="http://www.w3.org/1999/xlink" x="0px" y="0px"
	 viewBox="0 0 750 500" style="enable-background:new 0 0 750 500;" xml:space="preserve">
<g id="BACKGROUND">
	<g>
		<rect x="0" y="0" style="fill:#FFFFFF;" width="750" height="500"/>
	</g>
</g>
<g id="OBJECTS">
	<g>
		<g>
			<linearGradient id="SVGID_1_" gradientUnits="userSpaceOnUse" x1="62.3113" y1="404.0734" x2="-393.3889" y2="404.0734">
				<stop  offset="0" style="stop-color:#FFFFFF"/>
				<stop  offset="1" style="stop-color:#E0E0E0"/>
			</linearGradient>
			<polygon style="fill:url(#SVGID_1_);" points="74.803,500 0,308.147 0,500 			"/>
			
				<linearGradient id="SVGID_00000164485035526496523350000009836998905809067951_" gradientUnits="userSpaceOnUse" x1="310.3463" y1="249.9999" x2="-166.8217" y2="249.9999">
				<stop  offset="0" style="stop-color:#FFFFFF"/>
				<stop  offset="1" style="stop-color:#E0E0E0"/>
			</linearGradient>
			<polygon style="fill:url(#SVGID_00000164485035526496523350000009836998905809067951_);" points="260.823,500 65.873,0 5.849,0 
				200.798,500 			"/>
			
				<linearGradient id="SVGID_00000060022058594709116940000016077178985958429360_" gradientUnits="userSpaceOnUse" x1="75.9762" y1="297.784" x2="-34.6832" y2="343.8921">
				<stop  offset="0" style="stop-color:#FFFFFF"/>
				<stop  offset="1" style="stop-color:#E0E0E0"/>
			</linearGradient>
			<polygon style="fill:url(#SVGID_00000060022058594709116940000016077178985958429360_);" points="158.8,500 0,92.715 0,308.147 
				74.803,500 			"/>
			
				<linearGradient id="SVGID_00000080198545941432404250000005465548584568527007_" gradientUnits="userSpaceOnUse" x1="265.835" y1="234.4119" x2="111.4959" y2="295.3352">
				<stop  offset="0" style="stop-color:#FFFFFF"/>
				<stop  offset="1" style="stop-color:#E0E0E0"/>
			</linearGradient>
			<polygon style="fill:url(#SVGID_00000080198545941432404250000005465548584568527007_);" points="365.818,500 170.869,0 
				86.872,0 281.822,500 			"/>
			
				<linearGradient id="SVGID_00000152256112187242262420000013707615097181589139_" gradientUnits="userSpaceOnUse" x1="100.399" y1="388.1576" x2="100.399" y2="-339.9627">
				<stop  offset="0" style="stop-color:#FFFFFF"/>
				<stop  offset="1" style="stop-color:#E0E0E0"/>
			</linearGradient>
			<polygon style="fill:url(#SVGID_00000152256112187242262420000013707615097181589139_);" points="200.798,500 5.849,0 0,0 
				0,92.715 158.8,500 			"/>
			
				<linearGradient id="SVGID_00000047746185724765508660000016072777701224279726_" gradientUnits="userSpaceOnUse" x1="289.3428" y1="388.1576" x2="289.3428" y2="-339.9627">
				<stop  offset="0" style="stop-color:#FFFFFF"/>
				<stop  offset="1" style="stop-color:#E0E0E0"/>
			</linearGradient>
			<polygon style="fill:url(#SVGID_00000047746185724765508660000016072777701224279726_);" points="407.817,500 212.867,0 
				170.869,0 365.818,500 			"/>
			
				<linearGradient id="SVGID_00000058565653826474060420000010192115593704387770_" gradientUnits="userSpaceOnUse" x1="20.4754" y1="-112.9807" x2="208.7831" y2="332.6809">
				<stop  offset="0" style="stop-color:#E0E0E0"/>
				<stop  offset="1" style="stop-color:#FFFFFF"/>
			</linearGradient>
			<polygon style="fill:url(#SVGID_00000058565653826474060420000010192115593704387770_);" points="281.822,500 86.872,0 65.873,0 
				260.823,500 			"/>
			
				<linearGradient id="SVGID_00000099636159732812832010000017555663812392839079_" gradientUnits="userSpaceOnUse" x1="37.4016" y1="85.2169" x2="37.4016" y2="814.6616">
				<stop  offset="0" style="stop-color:#FFFFFF"/>
				<stop  offset="1" style="stop-color:#E0E0E0"/>
			</linearGradient>
			<polygon style="fill:url(#SVGID_00000099636159732812832010000017555663812392839079_);" points="74.803,500 0,308.147 0,409.95 
				35.11,500 			"/>
		</g>
		<g>
			
				<linearGradient id="SVGID_00000076593547522672628990000002714372171908843911_" gradientUnits="userSpaceOnUse" x1="459.1949" y1="180.6344" x2="312.9789" y2="282.1733">
				<stop  offset="0" style="stop-color:#E0E0E0"/>
				<stop  offset="1" style="stop-color:#FFFFFF"/>
			</linearGradient>
			<polygon style="fill:url(#SVGID_00000076593547522672628990000002714372171908843911_);" points="505.75,500 310.8,0 212.867,0 
				407.817,500 			"/>
			
				<linearGradient id="SVGID_00000013894739921790491480000010587438354062979236_" gradientUnits="userSpaceOnUse" x1="687.7703" y1="249.9999" x2="234.6593" y2="249.9999">
				<stop  offset="0" style="stop-color:#FFFFFF"/>
				<stop  offset="1" style="stop-color:#E0E0E0"/>
			</linearGradient>
			<polygon style="fill:url(#SVGID_00000013894739921790491480000010587438354062979236_);" points="637.852,500 442.903,0 
				400.276,0 595.225,500 			"/>
			
				<linearGradient id="SVGID_00000088116513085434865440000011397900704717751203_" gradientUnits="userSpaceOnUse" x1="589.6646" y1="249.9999" x2="48.4296" y2="249.9999">
				<stop  offset="0" style="stop-color:#FFFFFF"/>
				<stop  offset="1" style="stop-color:#E0E0E0"/>
			</linearGradient>
			<polygon style="fill:url(#SVGID_00000088116513085434865440000011397900704717751203_);" points="565.4,500 370.451,0 310.8,0 
				505.75,500 			"/>
			
				<linearGradient id="SVGID_00000165218621313974479270000016365563874544770705_" gradientUnits="userSpaceOnUse" x1="601.0167" y1="243.1333" x2="511.6624" y2="281.7181">
				<stop  offset="0" style="stop-color:#FFFFFF"/>
				<stop  offset="1" style="stop-color:#E0E0E0"/>
			</linearGradient>
			<polygon style="fill:url(#SVGID_00000165218621313974479270000016365563874544770705_);" points="712.415,500 517.466,0 
				457.815,0 652.764,500 			"/>
			
				<linearGradient id="SVGID_00000130647775841390468880000010947344814365179287_" gradientUnits="userSpaceOnUse" x1="482.8381" y1="388.1576" x2="482.8381" y2="-339.9627">
				<stop  offset="0" style="stop-color:#FFFFFF"/>
				<stop  offset="1" style="stop-color:#E0E0E0"/>
			</linearGradient>
			<polygon style="fill:url(#SVGID_00000130647775841390468880000010947344814365179287_);" points="595.225,500 400.276,0 
				370.451,0 565.4,500 			"/>
			
				<linearGradient id="SVGID_00000080904704930378367630000010873172343319983767_" gradientUnits="userSpaceOnUse" x1="629.8528" y1="388.1576" x2="629.8528" y2="-339.9627">
				<stop  offset="0" style="stop-color:#FFFFFF"/>
				<stop  offset="1" style="stop-color:#E0E0E0"/>
			</linearGradient>
			<polygon style="fill:url(#SVGID_00000080904704930378367630000010873172343319983767_);" points="742.24,500 547.291,0 
				517.466,0 712.415,500 			"/>
			
				<linearGradient id="SVGID_00000170252447203825808390000007506065293304010148_" gradientUnits="userSpaceOnUse" x1="676.9866" y1="591.8186" x2="468.2789" y2="39.4493">
				<stop  offset="0" style="stop-color:#E0E0E0"/>
				<stop  offset="1" style="stop-color:#FFFFFF"/>
			</linearGradient>
			<polygon style="fill:url(#SVGID_00000170252447203825808390000007506065293304010148_);" points="652.764,500 457.815,0 
				442.903,0 637.852,500 			"/>
			
				<linearGradient id="SVGID_00000160897592841672819470000015206186698686403728_" gradientUnits="userSpaceOnUse" x1="394.1812" y1="85.2169" x2="394.1812" y2="814.6616">
				<stop  offset="0" style="stop-color:#FFFFFF"/>
				<stop  offset="1" style="stop-color:#E0E0E0"/>
			</linearGradient>
			<polygon style="fill:url(#SVGID_00000160897592841672819470000015206186698686403728_);" points="505.75,500 310.8,0 282.613,0 
				477.562,500 			"/>
		</g>
		<g>
			
				<linearGradient id="SVGID_00000103244345559598215560000009213460956801364641_" gradientUnits="userSpaceOnUse" x1="759.1723" y1="497.3335" x2="372.9884" y2="497.3335" gradientTransform="matrix(-1 0 0 -1 1510.0946 530.0428)">
				<stop  offset="0" style="stop-color:#FFFFFF"/>
				<stop  offset="1" style="stop-color:#E0E0E0"/>
			</linearGradient>
			<polygon style="fill:url(#SVGID_00000103244345559598215560000009213460956801364641_);" points="724.493,0 750,65.419 750,0 			
				"/>
			
				<linearGradient id="SVGID_00000067234683676275489690000015323482136264772501_" gradientUnits="userSpaceOnUse" x1="910.1547" y1="370.3975" x2="471.8203" y2="370.3975" gradientTransform="matrix(-1 0 0 -1 1510.0946 530.0428)">
				<stop  offset="0" style="stop-color:#FFFFFF"/>
				<stop  offset="1" style="stop-color:#E0E0E0"/>
			</linearGradient>
			<polygon style="fill:url(#SVGID_00000067234683676275489690000015323482136264772501_);" points="625.509,0 750,319.291 
				750,237.372 657.449,0 			"/>
			
				<linearGradient id="SVGID_00000115482739616255849130000000365465878187266198_" gradientUnits="userSpaceOnUse" x1="758.0546" y1="132.1629" x2="635.0996" y2="-116.8208">
				<stop  offset="0" style="stop-color:#FFFFFF"/>
				<stop  offset="1" style="stop-color:#E0E0E0"/>
			</linearGradient>
			<polygon style="fill:url(#SVGID_00000115482739616255849130000000365465878187266198_);" points="679.797,0 750,180.054 
				750,65.419 724.493,0 			"/>
			
				<linearGradient id="SVGID_00000101807800680218089710000016835963108931801277_" gradientUnits="userSpaceOnUse" x1="941.5639" y1="298.7505" x2="423.8086" y2="298.7505" gradientTransform="matrix(-1 0 0 -1 1510.0946 530.0428)">
				<stop  offset="0" style="stop-color:#FFFFFF"/>
				<stop  offset="1" style="stop-color:#E0E0E0"/>
			</linearGradient>
			<polygon style="fill:url(#SVGID_00000101807800680218089710000016835963108931801277_);" points="569.639,0 750,462.585 
				750,347.95 614.335,0 			"/>
			
				<linearGradient id="SVGID_00000168822627050582825240000000873390956394720445_" gradientUnits="userSpaceOnUse" x1="806.37" y1="355.1284" x2="806.37" y2="-372.992" gradientTransform="matrix(-1 0 0 -1 1510.0946 530.0428)">
				<stop  offset="0" style="stop-color:#FFFFFF"/>
				<stop  offset="1" style="stop-color:#E0E0E0"/>
			</linearGradient>
			<polygon style="fill:url(#SVGID_00000168822627050582825240000000873390956394720445_);" points="657.449,0 750,237.372 
				750,180.054 679.797,0 			"/>
			
				<linearGradient id="SVGID_00000168075184552692035210000002134445270844924329_" gradientUnits="userSpaceOnUse" x1="861.4492" y1="355.1284" x2="861.4492" y2="-372.992" gradientTransform="matrix(-1 0 0 -1 1510.0946 530.0428)">
				<stop  offset="0" style="stop-color:#FFFFFF"/>
				<stop  offset="1" style="stop-color:#E0E0E0"/>
			</linearGradient>
			<polygon style="fill:url(#SVGID_00000168075184552692035210000002134445270844924329_);" points="750,500 750,462.585 569.639,0 
				547.291,0 742.24,500 			"/>
			
				<linearGradient id="SVGID_00000036226938517115795410000011289010246724865958_" gradientUnits="userSpaceOnUse" x1="596.2774" y1="-58.1608" x2="742.2159" y2="312.1777">
				<stop  offset="0" style="stop-color:#E0E0E0"/>
				<stop  offset="1" style="stop-color:#FFFFFF"/>
			</linearGradient>
			<polygon style="fill:url(#SVGID_00000036226938517115795410000011289010246724865958_);" points="614.335,0 750,347.95 
				750,319.291 625.509,0 			"/>
			
				<linearGradient id="SVGID_00000088103181079307461940000011170401149733966509_" gradientUnits="userSpaceOnUse" x1="772.8479" y1="52.1876" x2="772.8479" y2="781.6325" gradientTransform="matrix(-1 0 0 -1 1510.0946 530.0428)">
				<stop  offset="0" style="stop-color:#FFFFFF"/>
				<stop  offset="1" style="stop-color:#E0E0E0"/>
			</linearGradient>
			<polygon style="fill:url(#SVGID_00000088103181079307461940000011170401149733966509_);" points="724.493,0 750,65.419 
				750,11.248 745.615,0 			"/>
		</g>
	</g>
</g>
</svg>
